<?xml version="1.0" standalone="no"?><!DOCTYPE svg PUBLIC "-//W3C//DTD SVG 1.1//EN" "http://www.w3.org/Graphics/SVG/1.1/DTD/svg11.dtd"><svg class="icon" width="81px" height="81.00px" viewBox="0 0 1024 1024" version="1.1" xmlns="http://www.w3.org/2000/svg"><path fill="#000000" d="M872.7 383.2c0.2 0.7 0.3 1.4 0.5 2-46.6-155.4-190.7-269-361-269s-314.4 113.6-361 269c0.2-0.7 0.3-1.4 0.5-2-50.1 11.6-87.6 56.3-87.6 109.9 0 53.6 37.5 98.3 87.6 109.9-0.1-0.3-0.1-0.5-0.2-0.8 3.6 10.6 14.9 16.5 25.7 13.4 11.1-3.3 17.4-15 14-26.1-9.3-31.1-14.1-63.6-14.1-96.4 0-184.7 150.3-335 335-335s335 150.3 335 335c0 152-101.8 280.4-240.8 321.3-11.3-17-30.5-28.1-52.3-28.1h-83.7c-34.7 0-62.8 28.1-62.8 62.8 0 34.7 28.1 62.8 62.8 62.8H554c32.7 0 59.2-25 62.2-56.8 122.9-35.4 220.2-131.7 256.9-254-0.2 0.7-0.3 1.4-0.5 2 50-11.6 87.3-56.1 87.5-109.5v-0.8c-0.1-53.6-37.5-98.1-87.4-109.6z"  /><path fill="#000000" d="M701.6 579.1c3.6-10.3-1.9-21.5-12.2-25.1-10.3-3.5-21.6 1.9-25.1 12.2-22 63.5-82 106.2-149.3 106.2-67.4 0-127.5-42.8-149.4-106.6-3.5-10.3-14.8-15.8-25.1-12.2-10.3 3.5-15.8 14.8-12.2 25.1 27.4 79.7 102.4 133.2 186.7 133.2 84.1-0.1 159.1-53.5 186.6-132.8z"  /></svg>