<?xml version="1.0" standalone="no"?><!DOCTYPE svg PUBLIC "-//W3C//DTD SVG 1.1//EN" "http://www.w3.org/Graphics/SVG/1.1/DTD/svg11.dtd"><svg class="icon" width="81px" height="81.00px" viewBox="0 0 1024 1024" version="1.1" xmlns="http://www.w3.org/2000/svg"><path fill="#000000" d="M658.6 546c-23.1 0-45.3-9.1-61.7-25.5-17.7-17.7-27-42.3-25.3-67.4 2.9-45.7 43.1-81.4 91.5-81.4h49.5c18.3 0 33.2 14.9 33.2 33.2v49.5c0 48.3-35.8 88.5-81.4 91.5-2 0-3.9 0.1-5.8 0.1z m4.4-143.8c-31.7 0-59.1 23.7-61 52.8-1 16.4 4.9 32.3 16.5 43.9 11.5 11.5 27.5 17.6 43.8 16.4 29.1-1.9 52.8-29.2 52.8-61v-49.5c0-1.5-1.2-2.7-2.7-2.7H663zM586.8 454h0.2-0.2zM787.4 700.7H529.7c-16.1 0-29.1-12.7-29.2-28.3v-0.1c0-34.4 15.4-67.4 42.2-90.5 28.6-24.7 67.1-35.7 105.8-30.4h20.3c38.7-5.4 77.1 5.6 105.7 30.4 26.8 23.1 42.2 56.1 42.2 90.5v0.1c-0.1 15.6-13.2 28.3-29.3 28.3zM531 670.1h255c-0.6-24.7-12.1-48.4-31.6-65.3-22.2-19.1-52.3-27.6-82.5-23.1l-2.2 0.2-24.7-0.2c-30.3-4.5-60.3 3.9-82.5 23.1-19.4 16.9-30.8 40.6-31.5 65.3z"  /><path fill="#000000" d="M791.2 825.2H232.8c-63.8 0-115.7-51.9-115.7-115.6V314.5c0-63.8 51.9-115.6 115.7-115.6h558.4c63.8 0 115.7 51.9 115.7 115.6v395.1c0 63.7-51.9 115.6-115.7 115.6zM232.8 229.4c-46.9 0-85.1 38.2-85.1 85.1v395.1c0 46.9 38.2 85.1 85.1 85.1h558.4c46.9 0 85.1-38.2 85.1-85.1V314.5c0-46.9-38.2-85.1-85.1-85.1H232.8z"  /><path fill="#000000" d="M442.5 411.3H230.4c-8.4 0-15.3-6.8-15.3-15.3 0-8.4 6.8-15.3 15.3-15.3h212.1c8.4 0 15.3 6.8 15.3 15.3s-6.8 15.3-15.3 15.3zM442.5 539H230.4c-8.4 0-15.3-6.8-15.3-15.3 0-8.4 6.8-15.3 15.3-15.3h212.1c8.4 0 15.3 6.8 15.3 15.3 0 8.4-6.8 15.3-15.3 15.3zM353 687.9H230.4c-8.4 0-15.3-6.8-15.3-15.3s6.8-15.3 15.3-15.3H353c8.4 0 15.3 6.8 15.3 15.3s-6.9 15.3-15.3 15.3z"  /></svg>