<?xml version="1.0" standalone="no"?><!DOCTYPE svg PUBLIC "-//W3C//DTD SVG 1.1//EN" "http://www.w3.org/Graphics/SVG/1.1/DTD/svg11.dtd"><svg class="icon" width="81px" height="81.00px" viewBox="0 0 1024 1024" version="1.1" xmlns="http://www.w3.org/2000/svg"><path fill="#f05b1a" d="M91.733333 721.066667c12.8 25.6 27.733333 51.2 44.8 72.533333L170.666667 770.133333c-14.933333-21.333333-29.866667-42.666667-42.666667-66.133333L91.733333 721.066667zM100.266667 396.8l-38.4-10.666667c-8.533333 27.733333-12.8 55.466667-14.933333 85.333333L85.333333 473.6C87.466667 448 91.733333 422.4 100.266667 396.8zM85.333333 552.533333l-40.533333 4.266667c2.133333 27.733333 8.533333 57.6 17.066667 85.333333l38.4-10.666667C91.733333 605.866667 87.466667 578.133333 85.333333 552.533333zM196.266667 859.733333c21.333333 19.2 44.8 36.266667 68.266667 51.2l21.333333-34.133333c-21.333333-12.8-42.666667-29.866667-64-46.933333L196.266667 859.733333zM283.733333 149.333333l-21.333333-34.133333c-23.466667 14.933333-46.933333 32-68.266667 53.333333l27.733333 29.866667C241.066667 179.2 262.4 162.133333 283.733333 149.333333zM588.8 91.733333 597.333333 51.2C569.6 46.933333 539.733333 42.666667 512 42.666667c0 0 0 0 0 0l-2.133333 0L512 85.333333C537.6 85.333333 563.2 87.466667 588.8 91.733333zM757.333333 113.066667c-23.466667-14.933333-51.2-27.733333-76.8-38.4l-14.933333 38.4c23.466667 8.533333 49.066667 21.333333 70.4 34.133333L757.333333 113.066667zM168.533333 256l-32-23.466667c-17.066667 23.466667-32 46.933333-44.8 72.533333L128 322.133333C138.666667 298.666667 153.6 277.333333 168.533333 256zM430.933333 91.733333l-8.533333-40.533333c-27.733333 6.4-55.466667 12.8-83.2 23.466667l14.933333 38.4C379.733333 104.533333 405.333333 96 430.933333 91.733333zM851.2 253.866667l32-25.6c-17.066667-23.466667-36.266667-44.8-57.6-64l-27.733333 29.866667C819.2 213.333333 836.266667 232.533333 851.2 253.866667zM800 827.733333l27.733333 29.866667c21.333333-19.2 40.533333-40.533333 57.6-64L853.333333 770.133333C836.266667 789.333333 819.2 810.666667 800 827.733333zM977.066667 469.333333l-40.533333 4.266667C938.666667 484.266667 938.666667 499.2 938.666667 512c0 12.8 0 25.6-2.133333 38.4l40.533333 4.266667c2.133333-14.933333 2.133333-27.733333 2.133333-42.666667C979.2 497.066667 979.2 482.133333 977.066667 469.333333zM962.133333 384c-8.533333-27.733333-19.2-55.466667-32-81.066667l-36.266667 19.2c10.666667 23.466667 21.333333 49.066667 27.733333 72.533333L962.133333 384zM893.866667 701.866667l36.266667 17.066667c12.8-25.6 23.466667-53.333333 32-81.066667l-38.4-10.666667C915.2 654.933333 906.666667 678.4 893.866667 701.866667zM343.466667 949.333333c27.733333 10.666667 55.466667 19.2 83.2 23.466667l6.4-40.533333c-25.6-4.266667-51.2-12.8-76.8-21.333333L343.466667 949.333333zM533.333333 746.666667 533.333333 328.533333l134.4 134.4c4.266667 4.266667 8.533333 6.4 14.933333 6.4 12.8 0 21.333333-8.533333 21.333333-21.333333 0-6.4-2.133333-10.666667-6.4-14.933333l-170.666667-170.666667C522.666667 258.133333 518.4 256 512 256c-6.4 0-10.666667 2.133333-14.933333 6.4l-170.666667 170.666667C322.133333 437.333333 320 441.6 320 448c0 12.8 8.533333 21.333333 21.333333 21.333333 6.4 0 10.666667-2.133333 14.933333-6.4l134.4-134.4L490.666667 746.666667c0 12.8 8.533333 21.333333 21.333333 21.333333C524.8 768 533.333333 759.466667 533.333333 746.666667zM512 938.666667l0 40.533333c29.866667 0 57.6-2.133333 85.333333-8.533333l-8.533333-40.533333C565.333333 936.533333 537.6 938.666667 512 938.666667zM665.6 910.933333l14.933333 38.4c27.733333-10.666667 53.333333-23.466667 76.8-38.4l-21.333333-34.133333C714.666667 889.6 691.2 900.266667 665.6 910.933333z" /></svg>