<?xml version="1.0" standalone="no"?><!DOCTYPE svg PUBLIC "-//W3C//DTD SVG 1.1//EN" "http://www.w3.org/Graphics/SVG/1.1/DTD/svg11.dtd"><svg class="icon" width="81px" height="81.00px" viewBox="0 0 1024 1024" version="1.1" xmlns="http://www.w3.org/2000/svg"><path fill="#000000" d="M511.881808 895.155517c-211.516368 0-383.554606-172.019819-383.554606-383.489114 0-211.535811 172.075077-383.554606 383.554606-383.554606 211.498972 0 383.554606 172.075077 383.554606 383.554606C895.436414 723.135698 723.418642 895.155517 511.881808 895.155517M511.881808 164.585499c-191.365422 0-347.016435 155.660222-347.016435 347.025645 0 191.317327 155.651013 346.985736 347.016435 346.985736 191.366446 0 347.034854-155.668409 347.034854-346.985736C858.915639 320.30098 703.24723 164.585499 511.881808 164.585499M484.257657 635.919311c-0.187265-6.872524-0.280386-11.984962-0.280386-15.394618 0-20.150946 2.883677-37.56864 8.577353-52.214199 4.194532-11.04966 10.973936-22.174022 20.264533-33.411971 6.816243-8.18338 19.138896-20.168342 36.912701-35.854603 17.792225-15.684214 29.364795-28.184923 34.68394-37.493939 5.301749-9.317203 7.978718-19.48682 7.978718-30.546713 0-19.963681-7.791453-37.549198-23.352871-52.645011-15.600303-15.09479-34.740222-22.707165-57.382918-22.707165-21.893636 0-40.155559 6.882757-54.79907 20.553105-14.665001 13.700023-24.252357 35.077913-28.841885 64.190975l-52.794413-6.265704c4.77577-39.010479 18.895349-68.8726 42.382273-89.624227 23.465434-20.750603 54.537104-31.125905 93.173053-31.125905 40.902572 0 73.545016 11.143805 97.891518 33.410947 24.365944 22.257933 36.540218 49.189306 36.540218 80.756255 0 18.259876-4.309142 35.115776-12.867052 50.519604-8.577353 15.375176-25.320689 34.131355-50.209542 56.19486-16.705474 14.907525-27.680433 25.825179-32.775474 32.885991-5.112438 7.042393-8.971325 15.09479-11.441587 24.252357-2.51017 9.15859-3.91517 23.953551-4.308119 44.517913L484.257657 635.917264zM481.093595 680.416757l58.505485 0 0 58.507532-58.505485 0L481.093595 680.416757z" /></svg>