<?xml version="1.0" standalone="no"?><!DOCTYPE svg PUBLIC "-//W3C//DTD SVG 1.1//EN" "http://www.w3.org/Graphics/SVG/1.1/DTD/svg11.dtd"><svg class="icon" width="81px" height="81.00px" viewBox="0 0 1024 1024" version="1.1" xmlns="http://www.w3.org/2000/svg"><path fill="#9f2e33" d="M512 64C262.4 64 64 262.4 64 512s198.4 448 448 448 448-198.4 448-448-198.4-448-448-448z m256 339.2l-288 288c-6.4 12.8-19.2 12.8-32 12.8s-19.2 0-32-12.8L313.6 588.8c-12.8-12.8-12.8-32 0-44.8s32-12.8 44.8 0L448 633.6l275.2-275.2c12.8-12.8 32-12.8 44.8 0 12.8 12.8 12.8 38.4 0 44.8z"  /></svg>