<?xml version="1.0" standalone="no"?><!DOCTYPE svg PUBLIC "-//W3C//DTD SVG 1.1//EN" "http://www.w3.org/Graphics/SVG/1.1/DTD/svg11.dtd"><svg class="icon" width="81px" height="81.00px" viewBox="0 0 1024 1024" version="1.1" xmlns="http://www.w3.org/2000/svg"><path fill="#f05b1a" d="M512 772.266667c-157.866667 0-281.6-102.4-281.6-230.4 0-128 128-230.4 281.6-230.4 157.866667 0 281.6 102.4 281.6 230.4 0 123.733333-123.733333 230.4-281.6 230.4zM512 341.333333c-140.8 0-251.733333 89.6-251.733333 200.533334s115.2 200.533333 251.733333 200.533333 251.733333-89.6 251.733333-200.533333S652.8 341.333333 512 341.333333z"  /><path fill="#f05b1a" d="M324.266667 401.066667h-4.266667c-8.533333-4.266667-12.8-12.8-8.533333-21.333334l38.4-110.933333c4.266667-8.533333 12.8-17.066667 21.333333-17.066667 12.8 0 21.333333 4.266667 25.6 12.8l34.133333 64c4.266667 8.533333 0 17.066667-4.266666 21.333334-8.533333 4.266667-17.066667 0-21.333334-4.266667l-29.866666-55.466667L341.333333 392.533333c-4.266667 4.266667-8.533333 8.533333-17.066666 8.533334zM699.733333 401.066667c-4.266667 0-12.8-4.266667-12.8-8.533334l-34.133333-98.133333-29.866667 55.466667c-4.266667 8.533333-12.8 8.533333-21.333333 4.266666s-8.533333-12.8-4.266667-21.333333l34.133334-64c0-12.8 8.533333-17.066667 21.333333-17.066667 8.533333 0 17.066667 8.533333 21.333333 17.066667l38.4 110.933333c4.266667 8.533333 0 17.066667-8.533333 21.333334h-4.266667zM605.866667 499.2c-4.266667 0-4.266667 0-4.266667-4.266667l-34.133333-55.466666v-8.533334l34.133333-42.666666c4.266667-4.266667 8.533333-4.266667 12.8 0 4.266667 4.266667 4.266667 8.533333 0 12.8l-34.133333 38.4 34.133333 46.933333c0 4.266667 0 8.533333-8.533333 12.8 4.266667 0 0 0 0 0zM418.133333 499.2s-4.266667 0 0 0c-8.533333-4.266667-8.533333-8.533333-4.266666-12.8l34.133333-46.933333-34.133333-38.4c-4.266667-4.266667-4.266667-8.533333 0-12.8 4.266667-4.266667 8.533333-4.266667 12.8 0l34.133333 42.666666c4.266667 4.266667 4.266667 8.533333 0 8.533334l-34.133333 55.466666c-4.266667 4.266667-8.533333 4.266667-8.533334 4.266667zM866.133333 563.2l-153.6-17.066667c-4.266667 0-8.533333-4.266667-8.533333-8.533333s4.266667-8.533333 8.533333-8.533333l153.6 17.066666c4.266667 0 8.533333 4.266667 8.533334 8.533334 0 8.533333-4.266667 8.533333-8.533334 8.533333zM832 644.266667l-123.733333-55.466667c-4.266667 0-4.266667-4.266667-4.266667-8.533333s4.266667-4.266667 8.533333-4.266667l119.466667 55.466667c4.266667 0 4.266667 4.266667 4.266667 8.533333 0 0 0 4.266667-4.266667 4.266667zM157.866667 563.2c-4.266667 0-8.533333-4.266667-8.533334-8.533333s4.266667-8.533333 8.533334-8.533334l153.6-17.066666c4.266667 0 8.533333 4.266667 8.533333 8.533333s-4.266667 8.533333-8.533333 8.533333l-153.6 17.066667zM192 644.266667c-4.266667 0-4.266667 0-8.533333-4.266667 0-4.266667 0-8.533333 4.266666-8.533333l119.466667-55.466667c4.266667 0 8.533333 0 8.533333 4.266667s0 8.533333-4.266666 8.533333l-119.466667 55.466667zM520.533333 610.133333s-4.266667 0 0 0c-51.2-17.066667-51.2-68.266667-51.2-68.266666 0-4.266667 4.266667-8.533333 8.533334-8.533334h85.333333c4.266667 0 8.533333 4.266667 8.533333 8.533334 0 51.2-51.2 68.266667-51.2 68.266666z m-34.133333-64c0 12.8 8.533333 34.133333 34.133333 46.933334 8.533333-4.266667 34.133333-17.066667 34.133334-46.933334h-68.266667z"  /></svg>