<?xml version="1.0" standalone="no"?><!DOCTYPE svg PUBLIC "-//W3C//DTD SVG 1.1//EN" "http://www.w3.org/Graphics/SVG/1.1/DTD/svg11.dtd"><svg class="icon" width="81px" height="81.00px" viewBox="0 0 1024 1024" version="1.1" xmlns="http://www.w3.org/2000/svg"><path fill="#000000" d="M384 853.333333c12.8 0 21.333333-10.666667 21.333333-21.333333l-32-512c0-12.8-10.666667-21.333333-21.333333-21.333333-12.8 0-21.333333 10.666667-21.333333 21.333333L362.666667 832C362.666667 844.8 373.333333 853.333333 384 853.333333zM874.666667 170.666667 661.333333 170.666667 661.333333 85.333333c0-23.466667-19.2-42.666667-42.666667-42.666667L405.333333 42.666667c-23.466667 0-42.666667 19.2-42.666667 42.666667l0 85.333333L149.333333 170.666667C136.533333 170.666667 128 179.2 128 192c0 12.8 8.533333 21.333333 21.333333 21.333333l42.666667 0 42.666667 682.666667c6.4 46.933333 38.4 85.333333 85.333333 85.333333l384 0c46.933333 0 76.8-38.4 85.333333-85.333333l42.666667-682.666667 42.666667 0c12.8 0 21.333333-8.533333 21.333333-21.333333C896 179.2 887.466667 170.666667 874.666667 170.666667zM405.333333 85.333333l213.333333 0 0 85.333333L405.333333 170.666667 405.333333 85.333333zM746.666667 896c-2.133333 23.466667-19.2 42.666667-42.666667 42.666667L320 938.666667c-23.466667 0-38.4-19.2-42.666667-42.666667l-42.666667-682.666667 554.666667 0L746.666667 896zM640 853.333333c12.8 0 21.333333-8.533333 21.333333-21.333333l32-512c0-12.8-8.533333-21.333333-21.333333-21.333333-12.8 0-21.333333 8.533333-21.333333 21.333333L618.666667 832C618.666667 842.666667 627.2 853.333333 640 853.333333zM512 853.333333c12.8 0 21.333333-8.533333 21.333333-21.333333L533.333333 320c0-12.8-8.533333-21.333333-21.333333-21.333333s-21.333333 8.533333-21.333333 21.333333l0 512C490.666667 844.8 499.2 853.333333 512 853.333333z" /></svg>