<?xml version="1.0" standalone="no"?><!DOCTYPE svg PUBLIC "-//W3C//DTD SVG 1.1//EN" "http://www.w3.org/Graphics/SVG/1.1/DTD/svg11.dtd"><svg class="icon" width="81px" height="81.00px" viewBox="0 0 1024 1024" version="1.1" xmlns="http://www.w3.org/2000/svg"><path fill="#a9a9a9" d="M516.547441 341.567912a26.869924 26.869924 0 0 1 18.808946 7.229289c4.990129 4.862177 7.485193 11.515682 7.485193 18.233163a25.142572 25.142572 0 0 1-7.485193 18.10521l-103.961014 100.82619h565.355991c15.034362 0 26.9339 11.515682 26.9339 26.102212a26.358116 26.358116 0 0 1-26.9339 26.102212h-564.716231l103.961014 100.698238a25.590404 25.590404 0 0 1 7.485193 18.233162 25.206548 25.206548 0 0 1-7.485193 18.233163 26.869924 26.869924 0 0 1-18.808946 7.229289 26.997876 26.997876 0 0 1-18.808947-7.229289l-149.575909-145.097588a25.590404 25.590404 0 0 1-7.485193-18.233163c0-6.717481 2.495064-13.370986 7.485193-18.233163l149.575909-145.097588a27.701612 27.701612 0 0 1 18.169187-7.101337M521.153713 0.31988c223.916031 0 422.433587 139.851556 494.342622 347.901537 1.27952 3.134824 2.495064 6.845433 2.495064 11.259778a29.620892 29.620892 0 0 1-29.876796 29.364988 29.684868 29.684868 0 0 1-28.021492-19.384731c-62.952393-186.170186-239.206298-310.98738-438.363614-310.98738-254.56054 0-461.842809 203.571661-461.842809 453.334 0 249.890291 207.282269 453.461952 461.842809 453.461952 204.787205 0 386.79895-134.925403 444.057479-327.877046a29.237036 29.237036 0 0 1 28.021492-19.384731c16.50581 0 29.876796 13.115082 29.876796 29.364988 0 2.495064-0.63976 4.350369-0.63976 6.269649v0.63976c0 0.63976 0 1.855304-0.63976 2.495064a515.51868 515.51868 0 0 1-184.570786 262.301637 521.596401 521.596401 0 0 1-316.105461 104.984631 523.835562 523.835562 0 0 1-369.01362-150.535549 503.619143 503.619143 0 0 1-152.710733-361.592403c-1.215544-281.81432 232.936649-511.616144 521.148569-511.616144" /></svg>