<?xml version="1.0" standalone="no"?><!DOCTYPE svg PUBLIC "-//W3C//DTD SVG 1.1//EN" "http://www.w3.org/Graphics/SVG/1.1/DTD/svg11.dtd"><svg class="icon" width="81px" height="81.00px" viewBox="0 0 1024 1024" version="1.1" xmlns="http://www.w3.org/2000/svg"><path fill="#9f2e33" d="M366.725007 359.58955V632.487753l1.332075 1.623882 188.472715 146.48625v-568.665909L366.725007 359.58955z m340.936407-109.811701c-13.310509-7.865487-17.544275-25.390308-9.693122-39.218904 8.19825-13.148735 25.367783-17.53506 38.553378-9.470939 50.100757 30.220999 92.193706 73.817012 120.989457 125.745405 28.23159 50.050586 44.498056 107.951301 44.498056 169.309677a345.065737 345.065737 0 0 1-44.498056 169.56872c-28.795751 51.437951-70.8887 95.505975-120.989457 125.976803-13.185595 8.299614-30.355128 3.914314-38.553378-9.932712-7.851153-13.624842-3.618411-31.150687 9.693122-38.98341 42.319228-25.621706 77.004368-61.593869 101.479322-105.199097 23.003632-41.301486 36.637689-89.515222 36.637689-141.42928 0-51.197338-13.634057-99.883085-36.637689-141.170237-24.474955-43.375878-59.160094-80.068856-101.479322-105.196026z m-367.594286 58.807877L566.074456 133.026253c5.227958-4.621818 11.589358-6.91225 18.538467-6.91225 15.850769 0 28.125106 12.454541 28.125106 28.152751v189.16179c26.37631 10.617691 48.717488 28.138416 65.762107 50.531812 21.966436 28.125106 35.166365 63.661094 35.166365 102.182732 0 38.779657-13.19993 74.061721-35.166365 102.43256-16.613563 22.151759-39.385797 39.446206-65.762107 50.535908V838.047067c0 6.212936-1.952549 12.223143-5.699969 17.539155-9.678788 11.991745-27.195418 14.522789-39.256788 4.834787L340.067128 683.685091H189.865199c-15.457597 0-28.106676-12.672629-28.106676-28.125106V336.956565c0-15.656231 12.649079-28.369815 28.106676-28.369815h150.201929v-0.001024z m272.670901 72.207465v230.713104c15.605036-8.790056 28.795751-20.305694 39.497401-33.903914 17.51663-22.401587 27.759579-50.772425 27.759579-81.460317 0-30.456493-10.595165-58.826307-27.759579-81.201273-10.701649-13.841906-23.892364-25.385189-39.497401-34.1476z"  /></svg>