<?xml version="1.0" standalone="no"?><!DOCTYPE svg PUBLIC "-//W3C//DTD SVG 1.1//EN" "http://www.w3.org/Graphics/SVG/1.1/DTD/svg11.dtd"><svg class="icon" width="81px" height="81.00px" viewBox="0 0 1024 1024" version="1.1" xmlns="http://www.w3.org/2000/svg"><path fill="#a9a9a9" d="M402.149615 744.893234c-186.43104 0-338.116741-151.673421-338.116741-338.109578 0-186.443319 151.685701-338.116741 338.116741-338.116741 186.443319 0 338.116741 151.672398 338.116741 338.116741C740.266355 593.219813 588.592934 744.893234 402.149615 744.893234zM402.149615 123.870192c-155.998937 0-282.913465 126.914528-282.913465 282.913465 0 156.005077 126.914528 282.907325 282.913465 282.907325 155.997913 0 282.914488-126.902248 282.914488-282.907325C685.064103 250.78472 558.148551 123.870192 402.149615 123.870192zM202.269261 302.119899c-2.399653 0-4.824889-0.620124-7.03523-1.940189-6.550183-3.8814-8.706289-12.358469-4.811586-18.908652 44.178175-74.381058 125.31203-120.594589 211.727169-120.594589 7.628748 0 13.800307 6.172583 13.800307 13.800307 0 7.628748-6.172583 13.801331-13.800307 13.801331-76.726475 0-148.762115 41.037648-187.993628 107.090017C211.568045 299.706943 206.98568 302.119899 202.269261 302.119899zM169.842735 412.497798c-7.614421 0-13.800307-6.172583-13.800307-13.800307 0-19.596314 2.331092-30.512944 6.456039-48.127114 1.738597-7.426133 9.16473-12.008498 16.576537-10.296507 7.426133 1.738597 12.035104 9.150404 10.296507 16.576537-3.868097 16.536628-5.728468 25.216311-5.728468 41.847084C183.643042 406.325216 177.471482 412.497798 169.842735 412.497798zM874.661252 952.874079c-22.128997 0-42.911322-8.597819-58.558697-24.231891L593.338005 705.863313c-17.278525-17.278525-22.965038-38.625716-16.024975-60.135612 5.647627-17.494443 18.909675-32.263821 29.825282-43.154869 16.173354-16.173354 36.077683-32.722262 61.024865-32.722262 10.660804 0 26.643823 3.287883 42.264593 18.920932l222.777853 222.751247c15.634072 15.661701 24.245194 36.443004 24.245194 58.572 0 22.103414-8.611122 42.913369-24.245194 58.546418C917.559271 944.276261 896.777969 952.874079 874.661252 952.874079zM629.631606 663.626349c0.081864 0 0.809435 1.293459 2.736321 3.208065l222.76455 222.776829c10.41828 10.404977 28.626991 10.404977 39.043225 0 5.202489-5.228071 8.072863-12.155854 8.072863-19.514449 0-7.385201-2.870374-14.31196-8.086166-19.541055l-222.76455-222.753293c-1.953492-1.966795-3.261277-2.694365-3.597945-2.801812-0.201591 0.107447-5.875824 0.835018-21.63167 16.603143-15.754822 15.741519-16.508999 21.429055-16.549931 22.022573C629.631606 663.626349 629.631606 663.626349 629.631606 663.626349z" /></svg>