<?xml version="1.0" standalone="no"?><!DOCTYPE svg PUBLIC "-//W3C//DTD SVG 1.1//EN" "http://www.w3.org/Graphics/SVG/1.1/DTD/svg11.dtd"><svg class="icon" width="81px" height="81.00px" viewBox="0 0 1024 1024" version="1.1" xmlns="http://www.w3.org/2000/svg"><path fill="#222222" d="M645.856 506.144c-21.632-4.224-11.136-15.84-11.136-15.84s21.184-34.912-4.192-60.288c-31.424-31.424-107.808 4-107.808 4-29.184 9.056-21.44-4.128-17.312-26.56 0-26.432-9.056-71.2-86.752-44.768-77.632 26.56-144.288 119.68-144.288 119.68-46.368 61.856-40.224 109.664-40.224 109.664 11.584 105.536 123.744 134.528 210.944 141.376 91.776 7.2 215.616-31.648 253.184-111.392C735.808 542.08 667.552 510.464 645.856 506.144M451.872 703.648c-91.104 4.256-164.736-41.408-164.736-102.24 0-60.864 73.632-109.664 164.736-113.856 91.168-4.224 164.96 33.344 164.96 94.08C616.8 642.432 543.04 699.488 451.872 703.648M433.696 527.648c-91.648 10.72-81.056 96.544-81.056 96.544s-0.928 27.168 24.576 41.024c53.632 29.024 108.832 11.456 136.736-24.576C541.824 604.608 525.44 516.992 433.696 527.648M410.592 648.096c-17.12 1.984-30.912-7.872-30.912-22.176 0-14.24 12.256-29.184 29.376-30.944 19.648-1.856 32.448 9.44 32.448 23.744C441.472 632.992 427.616 646.176 410.592 648.096M464.608 602.08c-5.792 4.32-12.928 3.744-15.968-1.472-3.2-5.056-1.984-13.184 3.872-17.44 6.784-5.056 13.856-3.616 16.896 1.472C472.448 589.824 470.24 597.6 464.608 602.08M690.464 468.96c7.392 0 13.664-5.472 14.72-12.576 0.128-0.544 0.192-0.992 0.192-1.6 11.2-100.608-82.464-83.296-82.464-83.296-8.32 0-14.976 6.72-14.976 15.104 0 8.256 6.656 14.976 14.976 14.976 67.264-14.848 52.416 52.416 52.416 52.416C675.36 462.304 682.144 468.96 690.464 468.96M679.552 293.344c-32.352-7.584-65.664-1.024-75.008 0.736-0.704 0.064-1.408 0.736-2.048 0.864-0.32 0.064-0.544 0.416-0.544 0.416-9.184 2.592-15.936 11.104-15.936 21.184 0 12 9.728 21.856 21.856 21.856 0 0 11.776-1.568 19.776-4.704 7.904-3.2 74.976-2.4 108.288 53.536 18.176 40.832 8 68.128 6.72 72.544 0 0-4.32 10.592-4.32 21.056 0 12.064 9.728 19.648 21.76 19.648 10.08 0 18.528-1.376 20.992-18.4l0.128 0C816.992 362.848 737.472 306.848 679.552 293.344M512 0C229.216 0 0 229.248 0 512c0 282.784 229.216 512 512 512 282.752 0 512-229.216 512-512C1024 229.248 794.752 0 512 0M512 994.368C245.6 994.368 29.632 778.4 29.632 512 29.632 245.6 245.6 29.664 512 29.664c266.4 0 482.368 215.968 482.368 482.336C994.368 778.4 778.4 994.368 512 994.368" /></svg>